<mxfile host="app.diagrams.net" modified="2020-09-22T07:18:44.737Z" agent="5.0 (Windows NT 10.0; Win64; x64) AppleWebKit/537.36 (KHTML, like Gecko) Chrome/85.0.4183.102 Safari/537.36" etag="TnEhPLjrd7f77YdL8rTI" version="13.7.3" type="github">
  <diagram id="3BFR3GqZxXMxbAWBfeUj" name="Page-1">
    <mxGraphModel dx="1753" dy="674" grid="1" gridSize="10" guides="1" tooltips="1" connect="1" arrows="1" fold="1" page="1" pageScale="1" pageWidth="827" pageHeight="1169" math="0" shadow="0">
      <root>
        <mxCell id="0" />
        <mxCell id="1" parent="0" />
        <mxCell id="pgLIFL3BZB2Xo_3dE_xm-11" value="" style="rounded=1;whiteSpace=wrap;html=1;dashed=1;" vertex="1" parent="1">
          <mxGeometry x="110" y="150" width="380" height="110" as="geometry" />
        </mxCell>
        <mxCell id="EAKdSy7ptGbpC2-vD8Ey-16" value="" style="rounded=1;whiteSpace=wrap;html=1;dashed=1;" parent="1" vertex="1">
          <mxGeometry x="318.25" y="270" width="174.5" height="510" as="geometry" />
        </mxCell>
        <mxCell id="EAKdSy7ptGbpC2-vD8Ey-4" value="三层交换机" style="shape=mxgraph.cisco.switches.layer_3_switch;html=1;pointerEvents=1;dashed=0;fillColor=#036897;strokeColor=#ffffff;strokeWidth=2;verticalLabelPosition=bottom;verticalAlign=top;align=center;outlineConnect=0;" parent="1" vertex="1">
          <mxGeometry x="380.5" y="580" width="50" height="50" as="geometry" />
        </mxCell>
        <mxCell id="EAKdSy7ptGbpC2-vD8Ey-7" style="rounded=1;orthogonalLoop=1;jettySize=auto;html=1;exitX=0.5;exitY=1;exitDx=0;exitDy=0;exitPerimeter=0;entryX=0.5;entryY=0;entryDx=0;entryDy=0;entryPerimeter=0;endArrow=none;endFill=0;startArrow=none;startFill=0;" parent="1" source="EAKdSy7ptGbpC2-vD8Ey-5" target="EAKdSy7ptGbpC2-vD8Ey-4" edge="1">
          <mxGeometry relative="1" as="geometry" />
        </mxCell>
        <mxCell id="EAKdSy7ptGbpC2-vD8Ey-5" value="华为防火墙" style="shape=mxgraph.cisco.security.firewall;html=1;pointerEvents=1;dashed=0;fillColor=#036897;strokeColor=#ffffff;strokeWidth=2;verticalLabelPosition=bottom;verticalAlign=top;align=center;outlineConnect=0;" parent="1" vertex="1">
          <mxGeometry x="391" y="470" width="29" height="67" as="geometry" />
        </mxCell>
        <mxCell id="EAKdSy7ptGbpC2-vD8Ey-11" style="edgeStyle=none;rounded=1;orthogonalLoop=1;jettySize=auto;html=1;exitX=0.5;exitY=0;exitDx=0;exitDy=0;exitPerimeter=0;entryX=0.5;entryY=1;entryDx=0;entryDy=0;entryPerimeter=0;startArrow=none;startFill=0;endArrow=none;endFill=0;" parent="1" source="EAKdSy7ptGbpC2-vD8Ey-8" target="EAKdSy7ptGbpC2-vD8Ey-10" edge="1">
          <mxGeometry relative="1" as="geometry" />
        </mxCell>
        <mxCell id="EAKdSy7ptGbpC2-vD8Ey-8" value="速宝SD-WAN设备&amp;nbsp;" style="shape=mxgraph.cisco.routers.content_service_router;html=1;pointerEvents=1;dashed=0;fillColor=#036897;strokeColor=#ffffff;strokeWidth=2;verticalLabelPosition=bottom;verticalAlign=top;align=center;outlineConnect=0;" parent="1" vertex="1">
          <mxGeometry x="370.5" y="390" width="70" height="40" as="geometry" />
        </mxCell>
        <mxCell id="EAKdSy7ptGbpC2-vD8Ey-9" style="rounded=1;orthogonalLoop=1;jettySize=auto;html=1;exitX=0.5;exitY=0;exitDx=0;exitDy=0;exitPerimeter=0;endArrow=none;endFill=0;startArrow=none;startFill=0;" parent="1" source="EAKdSy7ptGbpC2-vD8Ey-5" target="EAKdSy7ptGbpC2-vD8Ey-8" edge="1">
          <mxGeometry relative="1" as="geometry">
            <mxPoint x="415.5" y="547" as="sourcePoint" />
            <mxPoint x="415.5" y="600" as="targetPoint" />
          </mxGeometry>
        </mxCell>
        <mxCell id="EAKdSy7ptGbpC2-vD8Ey-15" style="edgeStyle=none;rounded=1;orthogonalLoop=1;jettySize=auto;html=1;exitX=0.5;exitY=0;exitDx=0;exitDy=0;exitPerimeter=0;entryX=0.5;entryY=1;entryDx=0;entryDy=0;entryPerimeter=0;startArrow=none;startFill=0;endArrow=none;endFill=0;" parent="1" source="EAKdSy7ptGbpC2-vD8Ey-10" target="EAKdSy7ptGbpC2-vD8Ey-14" edge="1">
          <mxGeometry relative="1" as="geometry" />
        </mxCell>
        <mxCell id="EAKdSy7ptGbpC2-vD8Ey-10" value="电信光猫" style="shape=mxgraph.cisco.modems_and_phones.cable_modem;html=1;pointerEvents=1;dashed=0;fillColor=#036897;strokeColor=#ffffff;strokeWidth=2;verticalLabelPosition=bottom;verticalAlign=top;align=center;outlineConnect=0;" parent="1" vertex="1">
          <mxGeometry x="368.5" y="310" width="74" height="35" as="geometry" />
        </mxCell>
        <mxCell id="EAKdSy7ptGbpC2-vD8Ey-13" style="edgeStyle=none;rounded=1;orthogonalLoop=1;jettySize=auto;html=1;entryX=0.5;entryY=1;entryDx=0;entryDy=0;entryPerimeter=0;startArrow=none;startFill=0;endArrow=none;endFill=0;" parent="1" source="EAKdSy7ptGbpC2-vD8Ey-12" target="EAKdSy7ptGbpC2-vD8Ey-4" edge="1">
          <mxGeometry relative="1" as="geometry" />
        </mxCell>
        <mxCell id="EAKdSy7ptGbpC2-vD8Ey-12" value="PC" style="shape=mxgraph.cisco.computers_and_peripherals.laptop;html=1;pointerEvents=1;dashed=0;fillColor=#036897;strokeColor=#ffffff;strokeWidth=2;verticalLabelPosition=bottom;verticalAlign=top;align=center;outlineConnect=0;" parent="1" vertex="1">
          <mxGeometry x="365.5" y="670" width="80" height="50" as="geometry" />
        </mxCell>
        <mxCell id="pgLIFL3BZB2Xo_3dE_xm-2" style="edgeStyle=none;orthogonalLoop=1;jettySize=auto;html=1;entryX=1;entryY=0.5;entryDx=0;entryDy=0;entryPerimeter=0;startArrow=none;startFill=0;endArrow=none;endFill=0;rounded=1;strokeColor=#CC6600;strokeWidth=4;" edge="1" parent="1" source="EAKdSy7ptGbpC2-vD8Ey-14" target="pgLIFL3BZB2Xo_3dE_xm-1">
          <mxGeometry relative="1" as="geometry" />
        </mxCell>
        <mxCell id="EAKdSy7ptGbpC2-vD8Ey-14" value="POP点（上海）" style="shape=mxgraph.cisco.hubs_and_gateways.generic_gateway;html=1;pointerEvents=1;dashed=0;fillColor=#036897;strokeColor=#ffffff;strokeWidth=2;verticalLabelPosition=bottom;verticalAlign=top;align=center;outlineConnect=0;" parent="1" vertex="1">
          <mxGeometry x="381" y="170" width="49" height="60" as="geometry" />
        </mxCell>
        <mxCell id="EAKdSy7ptGbpC2-vD8Ey-17" style="edgeStyle=none;rounded=1;orthogonalLoop=1;jettySize=auto;html=1;exitX=0.5;exitY=0;exitDx=0;exitDy=0;startArrow=none;startFill=0;endArrow=none;endFill=0;" parent="1" source="EAKdSy7ptGbpC2-vD8Ey-16" target="EAKdSy7ptGbpC2-vD8Ey-16" edge="1">
          <mxGeometry relative="1" as="geometry" />
        </mxCell>
        <mxCell id="pgLIFL3BZB2Xo_3dE_xm-1" value="POP点（法兰克福）" style="shape=mxgraph.cisco.hubs_and_gateways.generic_gateway;html=1;pointerEvents=1;dashed=0;fillColor=#036897;strokeColor=#ffffff;strokeWidth=2;verticalLabelPosition=bottom;verticalAlign=top;align=center;outlineConnect=0;" vertex="1" parent="1">
          <mxGeometry x="160" y="170" width="49" height="60" as="geometry" />
        </mxCell>
        <mxCell id="pgLIFL3BZB2Xo_3dE_xm-4" value="专线" style="text;html=1;align=center;verticalAlign=middle;resizable=0;points=[];autosize=1;" vertex="1" parent="1">
          <mxGeometry x="270" y="180" width="40" height="20" as="geometry" />
        </mxCell>
        <mxCell id="pgLIFL3BZB2Xo_3dE_xm-6" value="&lt;font style=&quot;font-size: 14px&quot;&gt;富友食品上海办公室&lt;/font&gt;" style="text;html=1;resizable=0;autosize=1;align=center;verticalAlign=middle;points=[];fillColor=#fa6800;strokeColor=#C73500;rounded=0;dashed=1;fontColor=#ffffff;fontStyle=1" vertex="1" parent="1">
          <mxGeometry x="335.5" y="750" width="140" height="20" as="geometry" />
        </mxCell>
        <mxCell id="pgLIFL3BZB2Xo_3dE_xm-8" style="edgeStyle=none;rounded=1;orthogonalLoop=1;jettySize=auto;html=1;exitX=0.5;exitY=1;exitDx=0;exitDy=0;entryX=0.5;entryY=0;entryDx=0;entryDy=0;entryPerimeter=0;startArrow=none;startFill=0;endArrow=none;endFill=0;strokeColor=#000000;strokeWidth=1;" edge="1" parent="1" source="pgLIFL3BZB2Xo_3dE_xm-7" target="pgLIFL3BZB2Xo_3dE_xm-1">
          <mxGeometry relative="1" as="geometry">
            <Array as="points" />
          </mxGeometry>
        </mxCell>
        <mxCell id="pgLIFL3BZB2Xo_3dE_xm-7" value="Office365（欧洲）" style="shape=image;html=1;verticalAlign=top;verticalLabelPosition=bottom;labelBackgroundColor=#ffffff;imageAspect=0;aspect=fixed;image=https://cdn0.iconfinder.com/data/icons/logos-microsoft-office-365/128/Microsoft_Office-08-128.png;dashed=1;" vertex="1" parent="1">
          <mxGeometry x="149.5" y="50" width="70" height="70" as="geometry" />
        </mxCell>
        <mxCell id="pgLIFL3BZB2Xo_3dE_xm-12" value="&lt;font style=&quot;font-size: 14px&quot;&gt;SD-WAN骨干网&lt;/font&gt;" style="text;html=1;resizable=0;autosize=1;align=center;verticalAlign=middle;points=[];fillColor=#fa6800;strokeColor=#C73500;rounded=0;dashed=1;fontColor=#ffffff;fontStyle=1" vertex="1" parent="1">
          <mxGeometry x="234.5" y="160" width="110" height="20" as="geometry" />
        </mxCell>
      </root>
    </mxGraphModel>
  </diagram>
</mxfile>
